<?xml version="1.0" encoding="UTF-8" standalone="no"?>
<!-- Generator: Adobe Illustrator 21.0.2, SVG Export Plug-In . SVG Version: 6.00 Build 0)  -->

<svg
   xmlns:dc="http://purl.org/dc/elements/1.1/"
   xmlns:cc="http://creativecommons.org/ns#"
   xmlns:rdf="http://www.w3.org/1999/02/22-rdf-syntax-ns#"
   xmlns:svg="http://www.w3.org/2000/svg"
   xmlns="http://www.w3.org/2000/svg"
   xmlns:sodipodi="http://sodipodi.sourceforge.net/DTD/sodipodi-0.dtd"
   xmlns:inkscape="http://www.inkscape.org/namespaces/inkscape"
   version="1.1"
   id="svg45"
   inkscape:version="0.91 r13725"
   sodipodi:docname="kaleam-logo.svg"
   x="0px"
   y="0px"
   viewBox="0 0 400 350.3"
   style="enable-background:new 0 0 400 350.3;"
   xml:space="preserve"><metadata
     id="metadata10"><rdf:RDF><cc:Work
         rdf:about=""><dc:format>image/svg+xml</dc:format><dc:type
           rdf:resource="http://purl.org/dc/dcmitype/StillImage" /></cc:Work></rdf:RDF></metadata><defs
     id="defs8"><filter
       inkscape:menu="Shadows and Glows"
       inkscape:menu-tooltip="Cut out, add inner shadow and colorize some parts of an image"
       style="color-interpolation-filters:sRGB;"
       inkscape:label="Emergence"
       id="filter4207"><feColorMatrix
         values="0 0 0 0 0 0 0 0 0 0 0 0 0 0 0 0.21 0.72 0.07 0 0 "
         result="result1"
         id="feColorMatrix4209" /><feColorMatrix
         values="1 0 0 0 0 0 1 0 0 0 0 0 1 0 0 0 0 0 2 0 "
         result="result9"
         id="feColorMatrix4211" /><feComposite
         in2="result9"
         in="SourceGraphic"
         operator="in"
         result="result4"
         id="feComposite4213" /><feFlood
         result="result2"
         flood-color="rgb(0,0,0)"
         id="feFlood4215" /><feComposite
         in2="result9"
         operator="in"
         result="result10"
         id="feComposite4217" /><feComposite
         in2="result4"
         operator="atop"
         id="feComposite4219" /><feGaussianBlur
         stdDeviation="3"
         result="result8"
         id="feGaussianBlur4221" /><feOffset
         dx="3"
         dy="3"
         result="result3"
         in="result8"
         id="feOffset4223" /><feFlood
         flood-opacity="1"
         flood-color="rgb(219,173,62)"
         result="result5"
         id="feFlood4225" /><feMerge
         result="result6"
         id="feMerge4227"><feMergeNode
           in="result5"
           id="feMergeNode4229" /><feMergeNode
           in="result3"
           id="feMergeNode4231" /><feMergeNode
           in="result4"
           id="feMergeNode4233" /></feMerge><feComposite
         in2="SourceGraphic"
         operator="in"
         result="result7"
         id="feComposite4235" /></filter><filter
       inkscape:label="Inset"
       inkscape:menu="Shadows and Glows"
       inkscape:menu-tooltip="Shadowy outer bevel"
       style="color-interpolation-filters:sRGB;"
       id="filter4237"><feMorphology
         result="result1"
         in="SourceAlpha"
         operator="dilate"
         radius="3.6"
         id="feMorphology4239" /><feGaussianBlur
         stdDeviation="3.6"
         in="result1"
         result="result0"
         id="feGaussianBlur4241" /><feDiffuseLighting
         surfaceScale="-5"
         id="feDiffuseLighting4243"><feDistantLight
           elevation="45"
           azimuth="225"
           id="feDistantLight4245" /></feDiffuseLighting><feComposite
         in2="result0"
         operator="in"
         result="result91"
         id="feComposite4247" /><feComposite
         in="SourceGraphic"
         in2="result91"
         id="feComposite4249" /></filter></defs><style
     type="text/css"
     id="style3">
	.st0{fill:#FFFFFF;stroke:#000000;stroke-width:0.5;stroke-miterlimit:10;}
</style><sodipodi:namedview
     bordercolor="#666666"
     borderopacity="1"
     gridtolerance="10"
     guidetolerance="10"
     id="namedview47"
     inkscape:current-layer="svg45"
     inkscape:cx="216.76535"
     inkscape:cy="188.26108"
     inkscape:pageopacity="0"
     inkscape:pageshadow="2"
     inkscape:window-height="855"
     inkscape:window-maximized="1"
     inkscape:window-width="1440"
     inkscape:window-x="0"
     inkscape:window-y="1"
     inkscape:zoom="1.5073116"
     objecttolerance="10"
     pagecolor="#ffffff"
     showgrid="false" /><g
     id="surface7"
     style="filter:url(#filter4237);stroke-width:1;stroke-miterlimit:4;stroke-dasharray:none;stroke:#000000;stroke-opacity:1;fill:#ffffff;fill-opacity:1"><path
       id="path2"
       class="st0"
       d="M352.1,36c-0.6,0-1.2,0.1-1.8,0.2c-2.6,0.3-5.9,1.3-9.7,2.6c-7.5,2.7-17.1,7.3-27.2,12.7   c-20.1,10.8-42.4,24.8-55,34.4c0,0,0,0,0,0c-13.2,10.5-13.9,23.4-11.1,33.5c0.1,0.2,0.3,0.3,0.5,0.3c0,0,0,0,0,0c0,0.1,0,0.2,0,0.3   c0,0,0,0,0,0.1c0,0,0,0,0,0c0,0,0,0,0,0c8.4,9.7,14.7,14.5,23.5,21.9c0,0,0,0,0,0c21.3,15.6,11.9,8.2,23.6,18c0,0,0,0,0,0   c5.8,4.7,9.3,8.7,11.3,11.7c1,1.5,1.6,2.7,1.9,3.7s0.3,1.6,0.2,1.9c0,0,0,0,0,0c-1.1,2.8-1.5,3.9-5.5,7.9c-3.6,3.3-6.3,5-10,6.9   c-9,4.7-22.4,7.3-31.4,2.6c0,0,0,0,0,0c0,0,0,0,0,0c-0.9-0.5-1.8-1-2.5-1.7c-5.5-4.6-9.3-14.4-9.8-31.3c0,0,0,0,0,0   c-4-46.2-2.6-79.1-12.3-112.5c0,0,0,0,0,0c0,0,0,0,0,0c0,0,0,0,0,0c0,0,0,0,0,0c0,0,0,0,0,0c0,0,0,0,0,0c0,0,0,0,0,0c0,0,0,0,0-0.1   c0,0,0,0,0,0c0,0,0,0,0,0c0,0,0,0,0,0c0,0,0,0,0,0c0,0,0,0-0.1,0c0,0,0,0,0,0c0,0,0,0,0,0c0,0,0,0-0.1,0c0,0,0,0,0,0c0,0,0,0,0,0   c0,0,0,0,0,0c0,0,0,0,0,0c0,0,0,0-0.1,0c0,0,0,0,0,0c0,0,0,0,0,0c0,0,0,0,0,0c0,0,0,0,0,0c0,0,0,0,0,0c0,0,0,0,0,0c0,0,0,0,0,0   c0,0,0,0,0,0c0,0,0,0,0,0c0,0,0,0,0,0c0,0,0,0,0,0c0,0,0,0.1-0.1,0.1l-5.3,14.6c0,0,0,0.1,0,0.1c0,0,0,0,0,0.1   c7.3,38.7,4.8,25.7,7.7,64.3c0.1,4.8,0.9,19.7,0.8,33.3c-0.6,0.8-1.4,1.7-2.5,3.3c-2.6,2.9-4,3.8-5.8,5c-4.3,2.8-10.4,4.5-16.3,4.7   c-5.9,0.1-11.6-1.3-15.3-4.9l0,0c-2-2-4.3-7.1-5-9.7c-0.6-2.4-1.1-5.8-2.3-8.8c-1.2-3-3.2-5.6-6.8-6.3c0,0,0,0,0,0   c-0.4-0.1-0.8-0.1-1.3,0c-1.4,0.1-3.2,0.7-5.2,1.7c-2.7,1.3-5.7,3.4-8.8,6.2l0,0h0c-4.5,3.9-12.9,13-16.2,27.9c0,0,0,0,0,0   c-1.4,8.5-0.6,13.2,0.7,18.4c0,0,0,0,0,0.1l0,0.1c1.5,6.7,4.4,11.2,7.2,14.5c-1.5,0.5-3.1,1.1-4.9,2c0,0,0,0,0,0c0,0,0,0,0,0   c-7.4,3.7-15.9,10.2-24.6,16.2c-8.7,6.1-17.6,11.7-25.4,13.8c0,0,0,0,0,0c-4.7,1.3-9.2,1.4-12.9,0.6c-3.7-0.8-6.6-2.5-8.1-5   c0,0,0,0,0,0c-1.8-3-2.7-7.6-2.5-13c0.2-5.3,1.4-11.4,3.5-17.2v0c5.7-15.6,16-26.5,20.3-32.2c6.4,2.1,13.2,3.7,20.5,4.9   c0.1,0,0.1,0,0.2,0c0.1,0,0.1,0,0.1,0c0,0.1-0.1,0.4-0.3,0.9c-0.5,1.1-1.5,3-2.7,5.5c-2.3,5.1-5.1,12.9-5.7,23.2   c0,0.2,0.1,0.4,0.3,0.4c0.2,0,0.3-0.1,0.4-0.3l1.2-4.8c2.5-7.8,7.9-17.2,11.2-25c1.7-3.9,2.8-7.5,2.8-10.2c0-1.4-0.3-2.6-1-3.6   s-1.8-1.6-3.4-2c0,0,0,0,0,0c-53.6-8.6-81.6-42.9-81.2-71.5c4.3-11.4,14-20.8,29.2-25.8c18.2-5.9,44.4-5.5,79,5.7c0,0,0,0,0,0   c21,5.4,54.3,19.6,73.6,29.8c0,0,0.1,0,0.1,0l1.5,0.3c0,0,0,0,0.1,0c0.2,0,0.4,0,0.6-0.2c0.2-0.2,0.2-0.4,0.2-0.6   c-0.1-0.4-0.4-0.8-0.8-1.2c-0.9-1-2.4-2.3-4.6-3.9c-4.3-3.3-10.7-7.7-18.3-12.5c-15.2-9.5-34.9-20.1-50-24.7h0   c-21.6-7-40-9.9-55.2-9.7c-9.1,0.1-17.1,1.4-24,3.5c-18.3,5.7-28.7,17.8-31.4,32c0,0,0,0,0,0L46.9,103c-5,26.4,14.9,59.7,57,74.8   c-1.4,1.4-3.2,3.3-5,5.6c-5.4,6.6-11.8,16.2-15.1,25.2c0,0,0,0,0,0c-5.6,12.8-6.5,27.9-3.7,36.9c0,0,0,0,0,0   c2.7,7.5,6.2,12.1,10.3,14.5c4.1,2.5,8.7,2.7,13.6,1.5c0,0,0,0,0,0c0,0,0,0,0,0c0,0,0,0,0,0c8-2.1,16.9-7.9,25.7-14   c8.8-6.1,17.4-12.6,24.7-16.1c3.8-1.8,6.8-2.3,9.6-2.7c0,0,0,0,0,0c4.3-0.7,10.9-1.5,19,1.5c3.3,1.8,7.2,4,11.9,6.9c0,0,0,0,0,0   c0,0,0,0,0,0c0,0,0,0,0,0c0,0,0,0,0,0c0,0,0,0,0,0c0,0,0,0,0,0c0,0,0,0,0.1,0c0,0,0,0,0,0c0,0,0,0,0,0c0,0,0,0,0,0c0,0,0,0,0,0   c0,0,0,0,0,0c0,0,0,0,0,0c0,0,0,0,0,0c0,0,0,0,0,0c0,0,0,0,0,0c0,0,0,0,0,0c0,0,0,0,0,0c0,0,0,0,0,0c0,0,0,0,0,0c0,0,0,0,0,0   c0,0,0,0,0,0c0,0,0,0,0,0c0,0,0,0,0,0c0,0,0,0,0,0c0,0,0,0,0,0c0,0,0,0,0,0c0,0,0,0,0,0c0,0,0,0,0,0c0,0,0,0,0,0l3.1-15.2   c0-0.1,0-0.2-0.1-0.3c0,0,0,0,0,0c0,0,0,0,0,0c0,0,0,0,0,0c0,0,0,0,0,0c-6.3-5.4-11.6-7.9-16.8-10.4c-5.3-2.5-10.5-4.9-16.6-10.2   c-1.8-1.7-3.6-4.4-4.9-7.2c-0.9-1.9-1.6-3.8-1.9-5.5c2.2-7.1,6.4-13,8.9-16.2c0,0,0,0,0,0c2.8-3.5,6.2-6.2,9.1-8   c1.5-0.9,2.9-1.6,4-2c1.2-0.4,2.1-0.5,2.7-0.4c0,0,0,0,0,0c1.3,0.1,2.4,0.7,3.2,1.6c0.9,0.9,1.5,2,2.1,3.3c1.1,2.7,1.8,6,2.7,8.9   l0,0c0.5,1.8,2.9,7.2,5.3,9.5c0,0,0,0,0,0c0,0,0,0,0,0c0,0,0,0,0,0c3.9,3.7,9.7,5.3,15.6,5.3c5.9,0,12-1.6,16.5-4.4c0,0,0,0,0,0   l0,0c1.7-1,3-1.7,5.4-4.4c0,0,0,0,0,0c2.5-2.9,5.2-7.1,6.8-14.6v0l1.1-5c0.3,4.7,0.7,9.6,1.1,14.6c1.5,19.5,6.5,27.7,12.7,32.6   c0.9,0.7,1.7,1.3,2.6,1.8c0,0,0,0,0,0c0,0,0,0,0,0c9.2,4.9,22.8,2.1,32-2.6c3.7-1.9,6.5-3.7,10.2-7l0,0c4.9-4.2,7.5-7.1,9.2-10.4   c1.6-3.3,2.2-7.1,3.1-13.2c0,0,0,0,0,0c0.1-6.2-0.2-11.4-2.5-16.6c-2.3-5.2-6.7-10.4-14.9-17l0,0c-5.9-4.9-6.9-5.5-8.8-6.9   c-2-1.3-4.9-3.3-14.5-10.9c-1.6-1.4-2.9-2.6-4.3-3.8c3.9,0.6,7.2,1,9.5,0.7c0.1,0,0.3-0.1,0.3-0.2l0.4-1.3c0-0.1,0-0.3-0.1-0.4   c-2.8-2.3-7.6-5-12.4-7.7c-4.8-2.7-9.7-5.3-12.7-7.2c0,0,0,0,0,0c0,0,0,0,0,0c0,0,0,0-0.1,0c0,0,0,0,0,0c0,0,0,0,0,0c0,0,0,0,0,0   c0,0,0,0,0,0c0,0,0,0,0,0c0,0,0,0,0,0c0,0,0,0,0,0c0,0-0.1-0.1-0.1-0.1c0,0,0,0,0,0c0,0,0.1-0.1,0.2-0.2c0.4-0.4,1.5-1.1,2.4-2.2   c12.6-9.5,34.2-23.9,53.8-35.1c9.8-5.6,19.1-10.4,26.5-13.4c3.7-1.5,6.9-2.5,9.4-3c2.5-0.5,4.4-0.3,5.4,0.4   c1.4,1.1,2.3,2.4,2.3,4.7c0,2.3-1,5.5-3.6,10.3c-4.7,8.2-11.5,16.6-17.5,25.2c-5.9,8.6-10.9,17.5-11.8,26.9l-0.3,3.5   c0,0.2,0.1,0.4,0.3,0.4c0.2,0,0.3-0.1,0.4-0.3c6.1-19.8,23.4-33.8,33.6-54.9h0c3-6,5.4-12.2,6.2-17.7c0.8-5.5-0.1-10.3-3.8-13.4   C355.1,36.3,353.8,36,352.1,36z M150.6,102.1c-2.8,0-5.7,0.1-8.5,0.4c-0.1,0-0.2,0.1-0.3,0.2l-7.5,12.8c-0.1,0.2,0,0.4,0.1,0.5   c0.1,0,0.1,0.1,0.2,0c9.4-0.5,19.9,0.1,26.1,0.7c-5.7,4.6-13.5,7.9-23,10.7c-0.2,0-0.3,0.2-0.3,0.4l0.1,1c0,0.2,0.2,0.3,0.4,0.3   c0,0,0,0,0,0c9.5-1,14.7-1.5,18.3-3c3.6-1.5,5.6-4.1,8.5-9.1c0,0,0,0,0,0c0,0,0,0,0,0c0,0,0,0,0,0c0,0,0,0,0,0l4.9-10.6   c0.1-0.1,0-0.3-0.1-0.4c-1.9-1.8-6-2.9-11.1-3.4C156.1,102.3,153.4,102.1,150.6,102.1z M233.7,202.8c-0.1,0-0.3,0.1-0.3,0.2   l-6.6,14.1c-0.1,0.2,0,0.4,0.2,0.5c4.1,2,10.1,5,14.2,7.4c0.2,0.1,0.4,0,0.5-0.1c0,0,0,0,0,0l6.6-14.1c0.1-0.2,0-0.4-0.1-0.5   c-4.2-2.4-10.2-5.4-14.3-7.4C233.8,202.8,233.7,202.8,233.7,202.8z M211.8,208.3c-0.1,0-0.3,0.1-0.3,0.2l-6.6,14.1   c-0.1,0.2,0,0.4,0.2,0.5c4.1,2,10.1,5,14.2,7.4c0.2,0.1,0.4,0,0.5-0.1c0,0,0,0,0,0l6.6-14.1c0.1-0.2,0-0.4-0.1-0.5   c-4.2-2.4-10.2-5.4-14.3-7.4C211.9,208.4,211.9,208.3,211.8,208.3z M229.8,222.2c-0.1,0-0.2,0-0.3,0c-0.1,0.1-0.1,0.1-0.1,0.1   c-0.1,0.1-0.2,0.3-0.3,0.6c-0.1,0.3-0.3,0.7-0.6,1.1c-0.9,1.8-2.5,4.9-4.9,8.6c-4.6,7.4-12.1,16.9-22.4,22.7c0,0,0,0,0,0   c-32.3,19-67.3,19.1-97.7,25.5c0,0,0,0,0,0c-16.2,4.3-30.1,12-38.8,19c0,0,0,0,0,0l0,0c0,0,0,0,0,0l-6.2,5h0l0,0c0,0,0,0,0,0   c0,0,0,0,0,0c0,0,0,0.1,0,0.1c0,0,0,0.1,0,0.1c0,0,0,0,0,0c0,0,0,0.1,0,0.1c0,0,0,0.1,0,0.1c0,0,0,0,0,0c0,0.1,0.1,0.1,0.1,0.2   c0,0,0,0,0,0c0,0,0,0,0.1,0c0,0,0,0,0.1,0c0,0,0,0,0,0c0,0,0.1,0,0.1,0c0,0,0,0,0,0c0,0,0,0,0,0c0,0,0,0,0,0c0,0,0,0,0,0   c0,0,0,0,0.1,0c0,0,0.1-0.1,0.2-0.1c0,0,0,0,0,0c0.1-0.1,0.2-0.1,0.4-0.2c0.4-0.3,1.1-0.6,1.9-1c1.7-0.9,4.2-2,7.4-3.3   c6.5-2.6,16-5.5,28.3-7.3c0,0,0,0,0,0c31.7-5.3,66.5-3.8,99-22.9c0,0,0,0,0,0c9.5-7,22.8-17.1,33.4-46.1c0,0,0,0,0-0.1l0.2-0.8l0,0   c0.1-0.4,0.2-0.6,0.2-0.8c0,0,0-0.1,0-0.1c0,0,0-0.1,0-0.2C230,222.4,229.9,222.2,229.8,222.2z"
       style="stroke-width:1;stroke-miterlimit:4;stroke-dasharray:none;stroke:#000000;stroke-opacity:1;fill:#ffffff;fill-opacity:1" /></g></svg>